<svg width="259" height="36" viewBox="0 0 259 36" fill="none" xmlns="http://www.w3.org/2000/svg">
<g clip-path="url(#clip0_36_398)">
<path d="M65.0574 24.8263V16.2962H70.7866V10.0578H65.0574V0L55.2118 5.05014V10.0578H49.7372V16.2962H55.2118V26.1843C55.2118 27.3726 55.2966 28.3911 55.4239 29.2823L43.3291 18.9699C45.4934 17.3996 47.6578 15.4475 47.6578 12.01C47.6578 5.34721 39.8491 4.83795 37.0907 4.83795C31.3191 4.83795 26.2265 7.3418 26.1841 11.9251C26.1841 15.405 29.1123 18.3757 30.4279 19.5215C28.4757 20.3279 25.7172 21.2191 24.5714 23.9351C23.85 21.4737 22.11 20.1581 19.691 19.4367C13.4951 17.527 9.50587 17.5694 9.50587 15.6597C9.50587 14.1319 10.4395 13.368 11.8824 13.368C13.2404 13.368 14.0043 13.7075 14.5136 14.3017C14.9804 14.8109 15.1501 15.5748 15.1501 16.466H24.4865C24.147 9.16664 18.4603 7.63887 12.3068 7.63887C7.12934 7.63887 0.254357 9.33639 0.254357 15.7446C0.254357 25.2083 15.6594 22.4498 15.6594 27.0755C15.6594 28.7306 14.2589 29.4521 12.3492 29.4521C11.4156 29.4521 10.5668 28.9428 10.0151 28.2638C9.46344 27.5848 9.20881 26.6936 9.33612 25.9297H-0.000271522C-0.0427097 33.8656 6.15326 35.1812 12.5614 35.1812C17.6964 35.1812 23.1285 33.8656 24.5714 29.155C24.9534 30.1311 25.4626 30.8101 25.8446 31.3194C28.3484 34.5447 32.9317 35.1388 35.6053 35.1388C41.1647 35.1388 42.9047 32.9744 44.6022 31.574L48.6338 35.1812H59.9224H71.3807L71.4231 29.8765C70.2773 30.0038 65.0998 29.6218 65.0574 24.8263ZM37.1331 9.16664C38.4487 9.16664 39.637 9.84565 39.5945 11.1188C39.5945 12.2646 37.7272 13.9197 37.0907 14.3865C34.6717 12.5617 34.5019 11.7129 34.5019 11.1188C34.5019 9.97296 35.7326 9.16664 37.1331 9.16664ZM36.9209 29.155C34.4595 29.155 33.3985 27.7121 33.3985 26.5663C33.3985 25.6326 33.7805 24.9536 35.9448 23.9776L40.316 27.797C39.4672 28.7731 38.1092 29.155 36.9209 29.155Z" fill="#005083"/>
<path d="M182.951 27.7966L179.089 35.1809H186.813L182.951 27.7966Z" fill="#005083"/>
<path d="M88.9501 4.83765H82.457V35.1809H88.9501V4.83765Z" fill="#009FE3"/>
<path d="M192.669 10.2697H201.157V35.1809H207.607V10.2697H215.883V4.83765H192.669V10.2697Z" fill="#009FE3"/>
<path d="M224.455 22.407H235.489V17.1871H224.455V10.2697H237.442V4.83765H217.962V35.1809H238.078V29.7488H224.455V22.407Z" fill="#009FE3"/>
<path d="M247.371 29.7488V4.83765H240.878V35.1809H259V29.7488H247.371Z" fill="#009FE3"/>
<path d="M182.951 4.83765L168.649 32.4649V35.1809H169.031H169.752H170.134H173.147H173.402H173.742H173.996L182.951 18.0783L191.947 35.1809H192.16H192.499H192.754H197.21H197.592H198.101H198.525L182.951 4.83765Z" fill="#009FE3"/>
<path d="M130.964 19.7759L142.253 4.83765H134.868L124.344 19.0544V4.83765H117.978V35.1809H124.344V20.7095L134.953 35.1809H142.507L130.964 19.7759Z" fill="#009FE3"/>
<path d="M169.667 32.3376V32.2527L168.819 31.2342L162.835 23.2558C165.891 21.8553 168.14 19.0544 168.14 14.8106C168.14 8.31758 163.472 4.83765 156.427 4.83765H151.122H144.714V35.1809H151.207V10.2697H156.681C159.61 10.2697 161.986 11.7975 161.986 14.8106C161.986 17.8662 159.737 19.691 156.851 19.691H153.032L164.363 35.1809H168.861H169.752H171.874L169.667 32.3376Z" fill="#009FE3"/>
<path d="M94.4243 25.8445C96.5462 28.0513 99.8139 29.8761 103.93 29.8761C107.41 29.8761 109.15 28.221 109.15 26.5235C109.15 24.2743 106.562 23.5104 103.082 22.7041C98.2013 21.6007 91.9204 20.2426 91.9204 13.5374C91.9204 8.57215 96.2067 4.54053 103.251 4.54053C108.004 4.54053 111.951 5.98342 114.922 8.69947L111.4 13.3677C108.981 11.1184 105.755 10.0999 102.827 10.0999C99.9412 10.0999 98.4134 11.3731 98.4134 13.1555C98.4134 15.1925 100.917 15.7866 104.397 16.593C109.32 17.6964 115.601 19.1817 115.601 25.8445C115.601 31.319 111.697 35.4355 103.633 35.4355C97.9042 35.4355 93.7877 33.5258 90.9443 30.6824L94.4243 25.8445Z" fill="#009FE3"/>
</g>
<defs>
<clipPath id="clip0_36_398">
<rect width="259" height="35.4359" fill="white"/>
</clipPath>
</defs>
</svg>
